<svg xmlns:dc="http://purl.org/dc/elements/1.1/" xmlns:cc="http://creativecommons.org/ns#" xmlns:rdf="http://www.w3.org/1999/02/22-rdf-syntax-ns#" xmlns:svg="http://www.w3.org/2000/svg" xmlns="http://www.w3.org/2000/svg" xmlns:sodipodi="http://sodipodi.sourceforge.net/DTD/sodipodi-0.dtd" xmlns:inkscape="http://www.inkscape.org/namespaces/inkscape" viewBox="0 0 6.3499999 7.93750025" version="1.1" x="0px" y="0px"><g transform="translate(0,-2.1166667)"><path style="color:#000000;font-style:normal;font-variant:normal;font-weight:normal;font-stretch:normal;font-size:medium;line-height:normal;font-family:sans-serif;font-variant-ligatures:normal;font-variant-position:normal;font-variant-caps:normal;font-variant-numeric:normal;font-variant-alternates:normal;font-feature-settings:normal;text-indent:0;text-align:start;text-decoration:none;text-decoration-line:none;text-decoration-style:solid;text-decoration-color:#000000;letter-spacing:normal;word-spacing:normal;text-transform:none;writing-mode:lr-tb;direction:ltr;text-orientation:mixed;dominant-baseline:auto;baseline-shift:baseline;text-anchor:start;white-space:normal;shape-padding:0;clip-rule:nonzero;display:inline;overflow:visible;visibility:visible;opacity:1;isolation:auto;mix-blend-mode:normal;color-interpolation:sRGB;color-interpolation-filters:linearRGB;solid-color:#000000;solid-opacity:1;vector-effect:none;fill:#000000;fill-opacity:1;fill-rule:nonzero;stroke:none;stroke-width:0.5291667;stroke-linecap:round;stroke-linejoin:round;stroke-miterlimit:4;stroke-dasharray:none;stroke-dashoffset:0;stroke-opacity:1;paint-order:normal;color-rendering:auto;image-rendering:auto;shape-rendering:auto;text-rendering:auto;enable-background:accumulate" d="m 4.2307172,2.1166669 c -0.580036,0 -1.053847,0.4775216 -1.053847,1.0589363 0,0.5814148 0.473811,1.0563523 1.053847,1.0563523 0.488791,0 0.9002574,-0.3387415 1.0187875,-0.792781 h 0.8306004 a 0.26423512,0.2648633 0 0 0 0,-0.5297266 H 5.2484733 C 5.1290497,2.4561259 4.7185851,2.1166669 4.2307172,2.1166669 Z m -3.9596597,0.792781 a 0.26423512,0.2648633 0 0 0 0,0.5297266 H 2.6726324 C 2.6579894,3.3531755 2.6483994,3.265507 2.6483994,3.1756032 c 0,-0.090779 0.00934,-0.1793121 0.024233,-0.2661553 z m 1.8493879,1.3225076 c -0.4888354,0 -0.8999001,0.3406858 -1.0182718,0.795365 H 0.2710575 a 0.26400373,0.26463136 0 0 0 -0.0252635,0 0.26434585,0.26497429 0 0 0 0.0252635,0.5292098 h 0.8316317 c 0.11909,0.4535226 0.5296626,0.792781 1.0177562,0.792781 0.580036,0 1.0564248,-0.4770048 1.0564248,-1.0584195 3e-7,-0.5814147 -0.4763888,-1.0589363 -1.0564248,-1.0589363 z m 1.559116,0.795365 c 0.014614,0.085962 0.024232,0.1737073 0.024232,0.2635713 0,0.090563 -0.00939,0.1790534 -0.024233,0.2656385 h 2.4005437 a 0.26404222,0.26466994 0 1 0 0,-0.5292098 z m 0.5511558,1.3219908 c -0.580036,0 -1.053847,0.4775216 -1.053847,1.0589363 0,0.5814147 0.473811,1.0584196 1.053847,1.0584196 0.4880936,0 0.8990661,-0.3392584 1.0182719,-0.7927812 h 0.831116 a 0.26404227,0.26466999 0 0 0 0,-0.5292097 H 5.2495047 C 5.1310177,6.6899973 4.7195525,6.3493113 4.2307172,6.3493113 Z M 0.24579405,7.1446763 A 0.2643459,0.26497435 0 0 0 0.27105745,7.673886 H 2.6736635 C 2.6588275,7.587268 2.6494305,7.4987936 2.6494305,7.4082476 c 0,-0.089845 0.00963,-0.1775781 0.024233,-0.2635713 h -2.402606 a 0.26400373,0.26463136 0 0 0 -0.0252635,0 z"/></g><text x="0" y="21.3500002" fill="#000000" font-size="5px" font-weight="bold" font-family="'Helvetica Neue', Helvetica, Arial-Unicode, Arial, Sans-serif">Created by Ardiansyah</text><text x="0" y="26.3500002" fill="#000000" font-size="5px" font-weight="bold" font-family="'Helvetica Neue', Helvetica, Arial-Unicode, Arial, Sans-serif">from the Noun Project</text></svg>