<svg width="20" height="20" viewBox="0 0 800 800" fill="none" xmlns="http://www.w3.org/2000/svg">
<path d="M0 69.2254V730.782C0 768.941 31.05 799.991 69.2316 799.991H730.774C768.933 799.991 799.997 768.941 799.997 730.782V69.2254C799.997 31.0578 768.95 0.00781269 730.774 0.00781269H69.2316C31.0641 0.00499611 0 31.0578 0 69.2254ZM43.9387 69.2254C43.9387 55.2861 55.2726 43.9437 69.2316 43.9437H730.774C744.705 43.9437 756.061 55.2861 756.061 69.2254V730.782C756.061 744.713 744.736 756.055 730.774 756.055H69.2316C55.2867 756.055 43.9387 744.715 43.9387 730.782V69.2254Z" fill="black"/>
<path d="M137.336 722.171H662.671C695.478 722.171 722.168 695.481 722.168 662.67V137.324C722.168 104.522 695.478 77.832 662.671 77.832H137.336C104.534 77.832 77.8438 104.522 77.8438 137.324V662.656C77.8438 695.481 104.531 722.171 137.336 722.171ZM121.78 137.324C121.78 128.742 128.768 121.771 137.333 121.771H662.668C671.247 121.771 678.227 128.756 678.227 137.324V662.656C678.227 671.238 671.233 678.204 662.668 678.204H137.336C128.754 678.204 121.782 671.224 121.782 662.656L121.78 137.324Z" fill="black"/>
<path d="M348.567 268.23C358.6 252.299 375.578 244.331 399.519 244.331C423.891 244.331 440.647 250.804 449.857 263.74C459.011 276.668 463.63 290.993 463.63 306.727C463.63 320.37 459.481 332.893 451.274 344.278C446.711 350.894 440.703 357 433.31 362.585L410.698 380.276C388.408 397.66 374.584 413.022 369.207 426.364C363.878 439.695 360.568 463.864 359.324 498.849H443.435C443.635 482.287 444.981 470.072 447.471 462.205C451.389 449.792 459.312 438.949 471.328 429.626L493.266 412.549C515.551 395.165 530.597 380.89 538.464 369.714C551.882 351.305 558.6 328.629 558.6 301.742C558.6 257.882 543.125 224.764 512.202 202.418C481.253 180.062 442.407 168.895 395.643 168.895C360.05 168.895 330.045 176.761 305.631 192.486C266.934 217.109 246.339 258.907 243.863 317.883H333.569C333.557 300.733 338.585 284.172 348.567 268.23Z" fill="black"/>
<path d="M449.957 541.387H357.156V631.092H449.957V541.387Z" fill="black"/>
</svg>
